<svg width="36" height="30" viewBox="0 0 138 55" fill="none" xmlns="http://www.w3.org/2000/svg">
<path fill-rule="evenodd" clip-rule="evenodd" d="M47.5171 50.5447L47.4947 51.2847L46.7547 51.3968C44.8711 51.6659 42.808 50.9928 41.3056 50.3428C39.7583 49.6698 38.2559 48.661 38.2559 48.661C38.2559 48.661 38.2334 27.492 45.5886 0.784544L45.8129 0L46.6202 0.156971C49.625 0.762431 51.5087 1.41274 54.1996 2.91518L54.8275 3.25154L54.6033 3.9467C49.7147 19.5317 47.6965 44.1985 47.5171 50.5447Z" fill="#FFFFFE"/>
<path fill-rule="evenodd" clip-rule="evenodd" d="M28.6584 15.3831C28.2099 15.5849 27.5596 15.9216 26.8645 16.4819C25.2948 17.7604 23.299 20.2271 21.9087 25.0932L21.7517 25.7208L21.1014 25.7435C19.6214 25.788 17.8723 25.1605 16.5941 24.5999C15.2486 24.0389 13.6565 23.0974 13.6565 23.0974L13.8359 22.4471C16.8632 10.8758 25.4069 6.81698 25.519 6.77244L25.9451 6.57031L26.3487 6.81698C27.2008 7.33274 28.053 8.2073 28.6584 8.88003C28.9948 9.23882 29.2639 9.5755 29.4433 9.82217C30.0487 9.84459 31.17 9.91186 32.4706 10.1358C34.3318 10.4497 36.7088 11.1 38.3234 12.5128L38.6373 12.8046C38.6373 12.8046 38.0991 20.1147 37.2694 28.2772C36.4173 36.4396 35.2512 45.9028 33.9954 51.0155L33.7936 51.7555L33.0312 51.6658C31.5512 51.5089 29.7348 51.0155 28.2548 50.5673C26.8196 50.1413 25.0929 49.491 25.0929 49.491L25.2499 48.2576C24.8911 48.5488 24.5099 48.8628 24.1063 49.1767C22.5814 50.3428 20.4287 51.778 18.7468 51.868C17.6705 51.868 10.6068 48.8852 8.00553 44.6021L7.80371 44.2434L7.93826 43.8621C7.98311 43.6827 8.1625 42.6736 8.67826 41.1715C9.21645 39.6239 10.091 37.5609 11.5486 35.3409C14.4189 30.946 19.5093 25.9674 28.5015 22.8508C28.6584 21.5723 28.9948 18.2538 28.6584 15.3831ZM27.3354 33.4348C26.5281 33.7711 25.4293 34.3096 24.2408 35.1393C22.0656 36.6415 19.599 39.1306 18.1189 43.167C22.3347 42.5167 25.9451 38.8839 26.7748 37.9869L27.3354 33.4348Z" fill="#FFFFFE"/>
<mask id="mask0" mask-type="alpha" maskUnits="userSpaceOnUse" x="0" y="51" width="73" height="9">
<path d="M0 51.6445H72.857V59.6051H0V51.6445Z" fill="white"/>
</mask>
<g mask="url(#mask0)">
<path fill-rule="evenodd" clip-rule="evenodd" d="M71.8479 51.6445H72.857L72.2515 56.5106H71.4891C33.0536 57.1609 0 59.6052 0 59.6052C0 59.6052 0.40364 57.8558 0.672733 57.1831C0.919402 56.5327 1.32304 55.6358 1.90608 55.0527C2.7582 54.2009 35.5203 51.9585 71.8479 51.6445Z" fill="#FFFFFE"/>
</g>
<path fill-rule="evenodd" clip-rule="evenodd" d="M129.658 53.3923C130.106 53.4147 130.421 53.6614 130.622 53.8635C130.824 54.065 130.958 54.3117 131.071 54.4911C131.093 54.5808 131.138 54.6705 131.183 54.7378C132.237 54.962 134.838 55.5005 136.632 55.9038L138 56.9133L136.385 57.6305C119.814 56.599 101.874 56.2851 84.652 56.3748H83.7329L83.9793 51.6211H84.809C100.125 51.7108 115.665 52.2262 129.658 53.3923Z" fill="#FFFFFE"/>
<path fill-rule="evenodd" clip-rule="evenodd" d="M59.6266 42.5148C60.0302 42.4699 60.6133 42.3354 61.286 42.0439C62.8557 41.3936 65.0757 39.8687 67.52 36.3256L67.9012 35.765L68.5515 35.9893C71.0406 36.8866 72.4534 38.1644 73.687 40.4517L73.8885 40.8554L73.687 41.259C73.6418 41.3487 70.2336 48.1433 61.6896 51.0588L61.4878 51.1258C61.4878 51.1258 60.8375 51.0361 60.1199 50.8342C59.4248 50.6324 58.4605 50.3188 57.3617 49.8027C55.209 48.7491 52.5629 46.8651 50.6792 43.5687L50.5895 43.4342L50.5671 43.2999C50.5447 43.143 47.4725 25.4274 64.4927 6.45661L64.8963 6.00781L65.4569 6.23206C67.1163 6.86025 68.5291 8.07086 69.4933 9.05753C70.0988 9.68542 70.5697 10.2236 70.8388 10.5827H72.9018C72.9018 10.5827 73.1261 10.5827 73.4849 10.6272C73.7988 10.6945 74.247 10.7842 74.7855 10.9863C75.817 11.3897 77.0952 12.197 78.1495 13.7667L78.2837 13.9909L78.3064 14.2152C78.3064 14.3945 78.8664 28.2528 62.4745 38.1199L62.0036 38.4111L61.5327 38.1199C60.9496 37.7384 60.546 37.4917 60.1199 37.1778C60.0078 37.0881 59.9181 36.9984 59.806 36.9087C59.5593 39.0169 59.5817 41.3039 59.6266 42.5148ZM69.2915 20.0007C70.1209 18.4758 70.5249 17.1528 70.6142 16.1437C70.7042 15.0897 70.4127 14.7088 70.2336 14.5964C70.0091 14.4621 64.5151 17.96 61.5999 28.141C65.3672 25.6292 67.9012 22.6019 69.2915 20.0007Z" fill="#FFFFFE"/>
<path fill-rule="evenodd" clip-rule="evenodd" d="M121.136 13.8362C120.688 14.0156 120.038 14.352 119.342 14.935C117.772 16.1911 115.777 18.6799 114.387 23.546L114.23 24.1515L113.579 24.1739C112.099 24.2187 110.35 23.6136 109.072 23.0527C107.726 22.4696 106.135 21.5506 106.135 21.5506L106.314 20.8999C109.341 9.3065 117.885 5.27011 117.997 5.22557L118.423 5.02344L118.827 5.27011C119.679 5.78587 120.531 6.638 121.136 7.31073C121.473 7.69195 121.742 8.02862 121.921 8.25256C122.527 8.27529 123.648 8.34225 124.949 8.5665C126.81 8.88044 129.187 9.53075 130.801 10.9659L131.115 11.2574C131.115 11.2574 130.577 18.5678 129.747 26.7079C128.895 34.8704 127.729 44.3335 126.473 49.4462L126.272 50.1862L125.509 50.119C124.029 49.962 122.213 49.4687 120.733 49.0202C119.298 48.5717 117.571 47.9214 117.571 47.9214L117.728 46.7105C117.369 47.002 116.988 47.2935 116.584 47.6074C115.059 48.7959 112.907 50.2311 111.225 50.3211C110.148 50.3211 103.085 47.3159 100.483 43.0553L100.282 42.6965L100.416 42.2928C100.461 42.1134 100.64 41.1043 101.156 39.6243C101.694 38.077 102.569 36.014 104.027 33.7716C106.897 29.4212 111.987 24.4206 120.979 21.3039C121.136 20.0254 121.473 16.7066 121.136 13.8362ZM119.813 31.8879C119.006 32.2018 117.907 32.74 116.719 33.5697C114.544 35.0946 112.077 37.5837 110.597 41.5977C114.812 40.9698 118.423 37.3146 119.252 36.4401L119.813 31.8879Z" fill="#FFFFFE"/>
<path fill-rule="evenodd" clip-rule="evenodd" d="M90.7066 11.0122C91.4014 10.4968 92.0969 9.98069 92.7245 9.55462C93.3975 9.08402 94.003 8.70249 94.4963 8.43371C94.7654 8.27674 95.0121 8.16431 95.2139 8.07461C95.4157 8.00765 95.7072 7.91764 96.0209 7.94038C99.1379 8.23158 101.291 9.17372 102.704 10.0707C103.399 10.5189 103.892 10.9674 104.229 11.2813C104.61 11.6404 104.901 12.0886 104.901 12.0886L104.923 12.3353C105.664 23.4357 102.255 32.8536 98.6673 39.4912C95.1018 46.1289 91.3121 50.0083 91.2896 50.0535L90.886 50.4568C90.886 50.4568 89.0917 49.8292 87.4775 48.8871C86.3338 48.2371 84.9884 47.3174 83.7999 46.084C83.0599 51.7129 82.6559 56.1974 82.6559 58.3056V59.0678L81.8938 59.1799C80.0098 59.4493 77.9471 58.8211 76.4671 58.1932C74.9198 57.5429 73.3501 56.5338 73.3501 56.5338C73.3501 56.5338 73.9556 48.6853 75.3683 38.774C76.781 28.8848 79.0459 16.3716 82.499 6.05672L82.7459 5.31641L83.5084 5.45126C86.5584 6.05672 88.7554 7.13278 90.7963 8.92705L91.2221 9.30795L91.0651 9.86857C90.9308 10.2274 90.8187 10.631 90.7066 11.0122ZM84.4278 41.6888L84.5847 41.4873C85.7287 40.1643 87.2532 38.2579 88.7781 35.8361C91.626 31.3515 94.4515 25.2293 94.9897 18.1659C91.7605 20.5874 88.7781 24.736 86.7154 28.0099C85.8181 32.6745 85.0556 37.3836 84.4278 41.6888Z" fill="#FFFFFE"/>
<path fill-rule="evenodd" clip-rule="evenodd" d="M53.7511 3.65389C51.1499 2.196 49.3559 1.56842 46.4407 1.00781C39.1304 27.5583 39.1304 48.1664 39.1304 48.1664C39.1304 48.1664 43.3686 50.9694 46.6201 50.4982C46.822 44.1076 48.8177 19.3507 53.7511 3.65389Z" fill="#D8232A"/>
<path fill-rule="evenodd" clip-rule="evenodd" d="M28.9949 10.6522C28.9949 10.6522 34.9149 10.6522 37.718 13.1413C37.718 13.1413 35.6549 40.6109 33.121 50.7695C30.2731 50.4555 26.0573 48.8858 26.0573 48.8858L26.3936 46.0379C26.3936 46.0379 21.4154 50.8143 18.7245 50.9713C17.962 50.9713 11.2123 48.1458 8.74561 44.1094C9.0147 43.3918 11.0777 29.5556 29.2864 23.4789C29.2864 23.4789 30.0712 18.1419 29.3985 14.2401C29.3985 14.2401 23.9045 14.8231 21.0566 24.8244C18.5451 24.9141 14.6657 22.6492 14.6657 22.6492C17.6257 11.437 25.8779 7.53516 25.8779 7.53516C27.3579 8.43213 28.9949 10.6522 28.9949 10.6522ZM28.367 32.1348C28.367 32.1348 19.8233 34.153 16.8632 44.1094C22.6263 44.1094 27.6045 38.3463 27.6045 38.3463L28.367 32.1348Z" fill="#D8232A"/>
<path fill-rule="evenodd" clip-rule="evenodd" d="M2.53383 55.6355C3.02717 55.1198 35.1389 52.81 71.8705 52.4961L71.4665 55.6131C33.0086 56.2634 1.12109 58.5955 1.12109 58.5955C1.12109 58.5955 1.63686 56.5549 2.53383 55.6355ZM84.8087 52.4961C100.08 52.5634 115.62 53.0791 129.568 54.2452C130.174 54.29 130.51 55.4785 130.51 55.4785C130.51 55.4785 134.12 56.2185 136.43 56.7343C119.836 55.6807 101.896 55.3664 84.6521 55.4561L84.8087 52.4961Z" fill="#D8232A"/>
<path fill-rule="evenodd" clip-rule="evenodd" d="M65.1428 7.01953C68.1028 8.16318 70.3904 11.4371 70.3904 11.4371H72.9016C72.9016 11.4371 75.5477 11.4371 77.4089 14.2402C77.4089 14.2402 78.0144 27.7173 62.0033 37.3374C60.8821 36.6198 60.4785 36.4628 59.2003 35.0049C58.4603 38.4137 58.7967 43.392 58.7967 43.392C58.7967 43.392 63.2143 44.1095 68.2373 36.7992C70.5246 37.6065 71.758 38.7277 72.9016 40.8356C72.9016 40.8356 69.6273 47.3835 61.3979 50.1866C61.3979 50.1866 54.9845 49.312 51.419 43.1004C51.419 43.1004 48.3693 25.7215 65.1428 7.01953ZM60.187 29.9821C70.0089 24.443 73.2156 15.3166 70.6816 13.8138C69.2464 12.962 62.7658 18.7475 60.187 29.9821Z" fill="#D8232A"/>
<path fill-rule="evenodd" clip-rule="evenodd" d="M121.473 9.10559C121.473 9.10559 127.393 9.10559 130.196 11.5944C130.196 11.5944 128.133 39.0419 125.599 49.2002C122.751 48.909 118.535 47.3168 118.535 47.3168L118.872 44.4689C118.872 44.4689 113.893 49.2674 111.202 49.4023C110.44 49.4023 103.69 46.5768 101.224 42.5628C101.493 41.8449 103.556 27.9866 121.764 21.9324C121.764 21.9324 122.549 16.5953 121.877 12.6708C121.877 12.6708 116.383 13.2538 113.535 23.2778C111.023 23.3451 107.144 21.1027 107.144 21.1027C110.104 9.86771 118.356 5.98828 118.356 5.98828C119.836 6.88526 121.473 9.10559 121.473 9.10559ZM120.845 30.5655C120.845 30.5655 112.301 32.584 109.341 42.5628C115.104 42.5628 120.082 36.7998 120.082 36.7998L120.845 30.5655Z" fill="#D8232A"/>
<path fill-rule="evenodd" clip-rule="evenodd" d="M90.2133 9.57475C89.8321 10.7629 89.4733 12.019 89.1145 13.3193C91.8054 11.2117 95.1246 8.72262 95.9315 8.78958C101.874 9.32808 104.049 12.3778 104.049 12.3778C105.507 34.1295 90.6394 49.4005 90.6394 49.4005C90.6394 49.4005 85.8181 47.696 83.329 44.1084C83.329 44.1084 95.6179 32.4252 95.9315 16.4142C91.94 18.7463 88.2399 23.8815 85.8854 27.6488C83.3738 40.6774 81.7593 54.02 81.7593 58.2806C78.5077 58.7515 74.2695 56.0606 74.2695 56.0606C74.2695 56.0606 76.4671 26.8412 83.329 6.30078C86.2442 6.86139 88.3072 7.89292 90.2133 9.57475Z" fill="#D8232A"/>
</svg>
