<svg xmlns="http://www.w3.org/2000/svg" width="160" height="24" viewBox="0 0 243 24"><g fill="none" fill-rule="evenodd"><path fill="#FFF" d="M30.253 22.288c.134 0 .276.05.423.146l.001.002c1.847 1.144 3.877 2.204 6.221 2.204 1.333 0 2.452-.324 3.235-.935.783-.61 1.195-1.48 1.195-2.515 0-.794-.264-1.472-.808-2.074-.47-.518-1.167-1.004-2.194-1.528l-4.397-2.2c-1.826-.912-4.89-3.076-4.89-7.312 0-2.15.879-4.117 2.472-5.54 1.59-1.418 3.782-2.2 6.172-2.2 2.725 0 5.406.885 6.854 1.762.445.259.538.585.301 1.058L43.7 5.746c-.227.453-.591.57-1.055.338-1.333-.667-2.914-1.378-4.805-1.378-2.286 0-3.763 1.2-3.763 3.056 0 1.788 1.48 2.807 3.081 3.642l4.319 2.16c3.335 1.668 4.89 4.004 4.89 7.352 0 4.69-3.932 8.093-9.35 8.093-2.798 0-5.917-.966-8.345-2.585-.506-.351-.488-.692-.304-1.096l1.257-2.553c.128-.256.298-.419.49-.47a.545.545 0 0 1 .138-.017zm23.513-12.232c.152 0 .275.038.363.11.106.091.16.234.16.424v10.09c0 2.77 1.039 4.116 3.174 4.116 1.292 0 2.67-.575 3.596-1.501l.01-.01v-11.91c0-.474.197-.719.64-.792l3.417-.511c.221-.04.412-.005.537.1.11.092.169.236.169.418v17.314c0 .374-.26.635-.635.635h-3.493a.607.607 0 0 1-.635-.635v-1.1l-.056.055a7.427 7.427 0 0 1-5.12 2.072c-3.963 0-6.327-2.674-6.327-7.152V11.374c0-.465.19-.717.599-.79l3.417-.512c.065-.01.127-.016.184-.016zm24.82 14.74c2.743 0 4.587-2.143 4.587-5.334 0-3.166-1.844-5.293-4.588-5.293-1.77 0-3.081.858-3.87 1.579l-.01.01v7.45l.01.01c1.204 1.047 2.507 1.578 3.87 1.578zm7.15-12.221c1.516 1.734 2.317 4.116 2.317 6.887 0 2.79-.801 5.183-2.317 6.924-1.431 1.641-3.4 2.545-5.541 2.545-2.057 0-3.784-.684-5.437-2.151l-.054-.05v7.957a.607.607 0 0 1-.634.634h-3.455a.607.607 0 0 1-.634-.634V11.375c0-.466.19-.717.6-.792l3.416-.51c.065-.012.126-.017.184-.017a.55.55 0 0 1 .363.112c.106.09.16.231.16.422v1.644l.054-.05c1.653-1.467 3.38-2.15 5.437-2.15 2.14 0 4.108.902 5.54 2.54zm9.97 4.88h8.206l-.004-.038c-.304-2.314-1.747-3.642-3.96-3.642-2.169 0-3.791 1.396-4.233 3.64l-.009.04zm10.363-5.06c1.625 1.64 2.484 3.988 2.484 6.793v.785a.607.607 0 0 1-.635.635H95.67l.005.038c.4 2.721 2.423 4.346 5.412 4.346 1.417 0 2.782-.296 4.173-.905.437-.159.68-.065.861.335l.943 2.238c.209.503.117.768-.338.979-1.285.641-3.81 1.292-6.15 1.292-2.739 0-5.207-.922-6.95-2.597-1.802-1.73-2.753-4.12-2.753-6.911 0-2.599.96-4.99 2.704-6.734 1.712-1.712 4.016-2.655 6.49-2.655 2.363 0 4.495.838 6.002 2.36zm10.099-2.339c.152 0 .275.038.363.11.106.091.16.234.16.424v2.509l.061-.097c1.215-1.915 3.115-2.969 5.351-2.969.554 0 1.065.07 1.442.195.353.118.483.343.41.707l-.825 3.22c-.085.427-.348.594-.824.525a9.398 9.398 0 0 0-1.538-.158c-1.623 0-3.069.743-4.07 2.094l-.007.009v11.28a.607.607 0 0 1-.634.634H112.6a.607.607 0 0 1-.634-.635v-16.53c0-.465.191-.717.6-.79l3.417-.512c.065-.01.127-.016.184-.016zm29.998 4.113c-1.128 0-2.35.424-3.63 1.261l-.02.012.005.023c.109.505.158 1.036.158 1.72v10.72a.607.607 0 0 1-.635.634h-3.456a.607.607 0 0 1-.634-.634v-9.62c0-2.732-1.055-4.116-3.135-4.116-1.298 0-2.481.505-3.517 1.5l-.01.01v12.226c0 .373-.26.634-.634.634h-3.456a.607.607 0 0 1-.635-.634v-16.53c0-.466.192-.718.601-.792l3.417-.51c.237-.04.427-.007.546.095.107.09.161.232.161.421v1.808l.056-.056c1.488-1.489 3.348-2.308 5.238-2.308 2.065 0 3.876.876 4.841 2.34l.021.034.029-.026c.772-.706 2.904-2.348 6.024-2.348 1.93 0 3.532.583 4.634 1.683 1.228 1.229 1.85 3.069 1.85 5.47v10.719c0 .373-.26.634-.634.634h-3.416a.607.607 0 0 1-.635-.634v-9.62c0-2.77-1.024-4.116-3.134-4.116zm22.844 9.862v-3.335l-.021-.008a8.889 8.889 0 0 0-3.075-.59c-2.355 0-3.762 1.024-3.762 2.742 0 1.57 1.261 2.585 3.214 2.585 1.33 0 2.69-.517 3.634-1.384l.01-.01zm2.634-12.322c1.301 1.178 1.934 3.059 1.934 5.75v10.445a.607.607 0 0 1-.635.635h-3.298a.607.607 0 0 1-.635-.635v-.894l-.053.044c-.864.701-2.676 1.877-5.123 1.877-1.69 0-3.27-.542-4.45-1.528-1.28-1.07-1.956-2.539-1.956-4.25 0-3.667 3.017-6.131 7.505-6.131 1.463 0 2.782.231 4.033.705l.044.017v-.598c0-2.4-1.009-3.291-3.724-3.291-1.535 0-3.058.33-4.528.983-.228.105-.419.126-.564.066-.128-.054-.227-.175-.294-.361l-.864-2.395c-.147-.403-.13-.666.376-.9 1.255-.589 3.893-1.215 6.307-1.215 2.782 0 4.664.533 5.925 1.676zm10.12-1.653a.56.56 0 0 1 .363.11c.107.092.16.234.16.424v2.509l.062-.097c1.214-1.915 3.114-2.969 5.35-2.969.554 0 1.066.07 1.443.195.347.116.482.347.41.707l-.825 3.22c-.085.426-.348.595-.825.525a9.383 9.383 0 0 0-1.538-.158c-1.622 0-3.068.743-4.07 2.094l-.007.009v11.28c0 .373-.26.634-.634.634h-3.455a.607.607 0 0 1-.635-.635v-16.53c0-.465.192-.717.601-.79l3.416-.512c.065-.01.127-.016.184-.016zm17.92 10.572l-2.777 2.659-.01.008v4.61c0 .373-.26.633-.634.633h-3.456a.607.607 0 0 1-.635-.634V2.496c0-.423.153-.642.526-.752l2.946-.748c.306-.076.623-.155.815-.155.262 0 .438.191.438.477v16.81l7.241-7.24c.337-.336.64-.462 1.115-.462h3.926c.26 0 .447.099.513.27.074.19-.011.425-.222.616l-6.281 6.164-.02.02 6.807 10.15c.152.23.185.46.092.636-.09.166-.279.256-.535.256h-3.926c-.503 0-.803-.15-1.072-.535l-4.829-7.341-.022-.034zm16.027-3.174h8.206l-.005-.037c-.303-2.314-1.747-3.642-3.96-3.642-2.17 0-3.792 1.396-4.232 3.64l-.009.04zm10.363-5.06c1.625 1.64 2.484 3.99 2.484 6.794v.785a.608.608 0 0 1-.635.635h-12.249l.006.038c.401 2.721 2.423 4.346 5.411 4.346 1.417 0 2.784-.296 4.174-.905.438-.159.679-.065.861.335l.942 2.239c.21.502.118.767-.337.978-1.285.641-3.809 1.292-6.15 1.292-2.739 0-5.206-.922-6.95-2.597-1.801-1.73-2.754-4.12-2.754-6.911 0-2.599.96-4.99 2.705-6.734 1.712-1.712 4.017-2.655 6.489-2.655 2.363 0 4.495.838 6.003 2.36zm5.033-1.968h2.35V6.427c0-.392.148-.665.454-.834l3.338-1.886a.919.919 0 0 1 .494-.152c.237 0 .476.16.476.517v6.354h4.156c.209 0 .365.064.452.184.095.133.104.326.028.559l-.668 2.278c-.15.523-.364.682-.911.682h-3.057v8.593c0 1.454.606 2.192 1.8 2.192.418 0 .994-.174 1.267-.277.223-.074.392-.077.52-.012.118.062.203.187.262.383l.668 2.317c.106.315.17.668-.376.903-.677.338-2.055.704-3.479.704-3.549 0-5.424-1.917-5.424-5.544V14.13h-2.35a.606.606 0 0 1-.634-.634v-2.434c0-.375.26-.635.634-.635z"/><path fill="#f86800" d="M15.783 22.747c-.282 0-.506-.053-.672-.16a1.421 1.421 0 0 1-.442-.477L9.6 14.663v7.407c0 .451-.218.677-.653.677H5.028c-.435 0-.653-.226-.653-.677V7.018c0-.452.218-.677.653-.677h3.918c.435 0 .653.225.653.677v6.73l5.07-6.77c.128-.213.276-.372.442-.478.166-.106.39-.16.672-.16h4.302c.23 0 .404.1.519.3.115.198.07.43-.135.696l-5.454 6.81 5.57 7.605c.204.266.25.498.134.697a.562.562 0 0 1-.519.299h-4.417zM0 26.15c0-.447.225-.67.675-.67h23.807c.45 0 .674.223.674.67V28c0 .447-.225.67-.674.67H.675C.225 28.67 0 28.448 0 28v-1.85zM0 .994C0 .548.225.325.675.325h23.807c.45 0 .674.223.674.67v1.85c0 .446-.225.67-.674.67H.675c-.45 0-.675-.224-.675-.67V.995z"/></g></svg>
