<svg width="24" height="28" viewBox="0 0 30 24" fill="none" xmlns="http://www.w3.org/2000/svg">
<path d="M12.3906 0.588334C12.4885 0.410183 12.6324 0.261592 12.8074 0.158097C12.9823 0.0546011 13.1819 0 13.3851 0C13.5884 0 13.7879 0.0546011 13.9629 0.158097C14.1378 0.261592 14.2818 0.410183 14.3796 0.588334L19.7924 9.94653C19.8973 10.1195 19.9542 10.3173 19.9573 10.5196C19.9603 10.7218 19.9094 10.9213 19.8098 11.0973C19.7101 11.2733 19.5653 11.4196 19.3903 11.5211C19.2154 11.6226 19.0165 11.6756 18.8142 11.6747H7.98867C7.78671 11.6734 7.58856 11.6196 7.4137 11.5186C7.23883 11.4175 7.09326 11.2727 6.99129 11.0984C6.88932 10.924 6.83447 10.7262 6.83211 10.5242C6.82976 10.3223 6.87998 10.1232 6.97786 9.94653L12.3906 0.588334Z" fill="#DB0064"/>
<path d="M5.57777 12.3276C5.67565 12.1494 5.81958 12.0009 5.99453 11.8974C6.16948 11.7939 6.36901 11.7393 6.57228 11.7393C6.77555 11.7393 6.97509 11.7939 7.15003 11.8974C7.32498 12.0009 7.46892 12.1494 7.5668 12.3276L12.9796 21.6858C13.0774 21.8625 13.1277 22.0615 13.1253 22.2635C13.1229 22.4654 13.0681 22.6633 12.9661 22.8376C12.8642 23.012 12.7186 23.1568 12.5437 23.2578C12.3688 23.3589 12.1707 23.4127 11.9687 23.414H1.14322C0.940932 23.4149 0.742051 23.3619 0.56706 23.2604C0.392069 23.1589 0.247295 23.0126 0.147646 22.8366C0.0479976 22.6605 -0.00292298 22.4611 0.000129603 22.2588C0.00318218 22.0565 0.0600973 21.8587 0.165013 21.6858L5.57777 12.3276Z" fill="#FF6A00"/>
<path d="M19.2418 12.3276C19.3397 12.1494 19.4836 12.0009 19.6586 11.8974C19.8335 11.7939 20.0331 11.7393 20.2363 11.7393C20.4396 11.7393 20.6392 11.7939 20.8141 11.8974C20.989 12.0009 21.133 12.1494 21.2309 12.3276L26.6436 21.6858C26.7446 21.862 26.7973 22.0617 26.7964 22.2648C26.7955 22.4679 26.741 22.6672 26.6385 22.8425C26.5359 23.0178 26.389 23.163 26.2124 23.2633C26.0358 23.3636 25.8359 23.4156 25.6328 23.414H14.8073C14.605 23.4149 14.4061 23.3619 14.2311 23.2604C14.0561 23.1589 13.9114 23.0126 13.8117 22.8366C13.7121 22.6605 13.6611 22.4611 13.6642 22.2588C13.6672 22.0565 13.7242 21.8587 13.8291 21.6858L19.2418 12.3276Z" fill="#FFD11A"/>
</svg>
