<svg width="24" height="20" viewBox="0 0 32 64" fill="none" xmlns="http://www.w3.org/2000/svg">
<path d="M18.3181 10.3298C22.6184 6.00702 28.2032 4.15439 34.0673 4.15439H38.4234V0H34.0673C27.0304 0 20.4404 2.30175 15.3582 7.41053C10.2202 12.5193 7.93041 19.0877 7.93041 26.2175V36.9404C7.93041 37.3333 7.87456 37.8386 7.81871 38.1754C7.65117 38.9614 7.31608 39.6351 6.81345 40.1404C6.31082 40.6456 5.75234 40.8702 5.30556 41.0386C4.91462 41.1509 4.41199 41.2632 3.90936 41.3754C2.7924 41.5439 0 41.6 0 41.6V54.4561H3.79766C8.65643 54.4561 13.1243 52.9965 16.4751 49.6281C19.826 46.3158 21.2781 42.0491 21.2781 37.4456V26.2175C21.2781 22.7368 22.395 19.4807 24.9082 16.9544C27.4772 14.4281 30.7164 13.3053 34.1231 13.3053H34.7374V18.2456C33.5646 18.3018 32.7827 18.414 31.7216 18.7509C30.6047 19.0877 29.5436 19.7053 28.5942 20.6035C27.0304 22.1754 26.4161 24.1404 26.4161 26.2175V37.4456C26.4161 43.4526 24.5173 49.0105 20.1611 53.3333C15.8608 57.6561 10.276 59.5088 4.41199 59.5088H0V63.6632H4.41199C11.393 63.6632 17.983 61.3614 23.0652 56.2526C28.2032 51.1439 30.4371 44.5754 30.4371 37.4456V26.7228C30.4371 26.3298 30.493 25.8246 30.5488 25.4877C30.7164 24.7018 31.0515 24.0281 31.5541 23.5228C32.0567 23.0175 32.6152 22.793 33.062 22.6246C33.4529 22.5123 33.9556 22.4 34.4582 22.2877C35.631 22.1193 38.4234 22.0632 38.4234 22.0632V9.20702H34.6257C29.767 9.20702 25.2991 10.6667 21.9482 14.0351C18.5974 17.3474 17.1453 21.614 17.1453 26.2175V37.4456C17.1453 40.9263 16.0284 44.1825 13.5152 46.7088C10.9462 49.2351 7.70702 50.3579 4.30029 50.3579H3.74181V45.3053C4.91462 45.2491 5.80819 45.0807 6.7576 44.8C7.87456 44.4632 8.93567 43.9579 9.88509 43.0596C11.4488 41.4877 12.0632 39.5228 12.0632 37.4456V26.2175C12.0632 20.2105 13.962 14.6526 18.3181 10.3298Z" fill="#00AA46"/>
</svg>
